<?xml version="1.0" encoding="UTF-8" standalone="no"?>
<!-- Created with Inkscape (http://www.inkscape.org/) -->

<svg
   xmlns:dc="http://purl.org/dc/elements/1.1/"
   xmlns:cc="http://creativecommons.org/ns#"
   xmlns:rdf="http://www.w3.org/1999/02/22-rdf-syntax-ns#"
   xmlns:svg="http://www.w3.org/2000/svg"
   xmlns="http://www.w3.org/2000/svg"
   xmlns:sodipodi="http://sodipodi.sourceforge.net/DTD/sodipodi-0.dtd"
   xmlns:inkscape="http://www.inkscape.org/namespaces/inkscape"
   width="185"
   height="60"
   viewBox="0 0 48.947916 15.875001"
   version="1.1"
   id="svg8"
   inkscape:version="0.92.5 (2060ec1f9f, 2020-04-08)"
   sodipodi:docname="expo-bbraun.svg">
  <defs
     id="defs2" />
  <sodipodi:namedview
     id="base"
     pagecolor="#ffffff"
     bordercolor="#666666"
     borderopacity="1.0"
     inkscape:pageopacity="0.0"
     inkscape:pageshadow="2"
     inkscape:zoom="4.3982042"
     inkscape:cx="119.66121"
     inkscape:cy="50.504993"
     inkscape:document-units="mm"
     inkscape:current-layer="layer1"
     showgrid="false"
     units="px"
     inkscape:window-width="1864"
     inkscape:window-height="1016"
     inkscape:window-x="56"
     inkscape:window-y="27"
     inkscape:window-maximized="1" />
  <metadata
     id="metadata5">
    <rdf:RDF>
      <cc:Work
         rdf:about="">
        <dc:format>image/svg+xml</dc:format>
        <dc:type
           rdf:resource="http://purl.org/dc/dcmitype/StillImage" />
        <dc:title />
      </cc:Work>
    </rdf:RDF>
  </metadata>
  <g
     inkscape:label="Capa 1"
     inkscape:groupmode="layer"
     id="layer1"
     transform="translate(0,-281.12498)">
    <g
       id="g925"
       transform="matrix(0.26287845,0,0,0.26287845,-3.83008,274.39893)"
       style="fill:#ffffff">
      <g
         id="g903"
         style="fill:#ffffff">
        <g
           style="fill:#ffffff"
           id="g873"
           transform="matrix(0.33201877,0,0,0.33201877,17.068467,48.982327)">
          <path
             inkscape:connector-curvature="0"
             d="m 176.443,12.283 c 19.056,0 19.859,16.387 19.859,16.387 0,17.191 -14.658,17.056 -14.658,17.056 21.187,0 20.653,19.98 20.653,19.98 0,23.323 -28.114,22.247 -28.114,22.247 h -50.827 c 4.125,0 5.537,-6.735 5.537,-6.735 V 19.55 c 0,-5.466 -5.537,-7.268 -5.537,-7.268 z m -23.454,13.12 V 74.62 h 14.192 c 0,0 11.858,0 11.858,-10.581 0,0 -1.263,-9.425 -22.992,-18.716 h 9.137 c 0,0 9.995,0.507 9.995,-10.182 0,-11.048 -10.797,-9.686 -10.797,-9.686 z M 54.09,12.283 c 19.048,0 19.856,16.387 19.856,16.387 0,17.191 -14.66,17.056 -14.66,17.056 21.187,0 20.653,19.98 20.653,19.98 0,23.323 -28.112,22.247 -28.112,22.247 H 0.998 c 4.13,0 5.538,-6.735 5.538,-6.735 V 19.55 c 0,-5.466 -5.538,-7.268 -5.538,-7.268 z M 30.632,25.403 V 74.62 h 14.195 c 0,0 11.855,0 11.855,-10.581 0,0 -1.264,-9.425 -22.993,-18.716 h 9.138 c 0,0 9.99,0.507 9.99,-10.182 0,-11.048 -10.788,-9.686 -10.788,-9.686 z M 206.808,12.296 c 0,0 6.748,1.153 6.748,7.07 v 61.852 c 0,0 -1.32,6.735 -6.748,6.735 h 30.929 V 25.62 h 12.496 c 0,0 11.025,0.162 11.025,11.842 0,11.676 -10.039,11.846 -10.039,11.846 h -11.017 c 0,0 4.771,3.946 10.856,17.434 6.08,13.48 6.08,13.48 6.25,13.65 0.166,0.17 4.108,7.56 9.049,7.56 h 24.01 c 0,0 -5.26,-1.47 -8.385,-8.708 -3.129,-7.244 -6.743,-15.789 -6.743,-15.789 0,0 -3.29,-10.367 -11.842,-10.367 h -0.494 c 0,0 21.218,0.991 21.218,-21.383 0,-22.37 -31.095,-19.41 -31.095,-19.41 z"
             id="path869"
             style="fill:#ffffff" />
          <path
             inkscape:connector-curvature="0"
             d="m 357.374,87.953 h 29.943 c 0,0 -4.278,-0.978 -7.569,-9.694 -3.291,-8.724 -20.894,-58.066 -20.894,-58.066 0,0 -1.65,-7.897 -8.393,-7.897 h -34.37 c -0.001,0 7.727,1.645 5.753,7.398 -1.108,3.242 -7.207,19.469 -12.336,33.064 h -7.735 c -5.097,0 -5.919,3.783 -7.886,8.388 -1.978,4.605 -6.416,8.555 -6.416,8.555 3.613,-2.138 11.67,-1.317 11.67,-1.317 0,0 1.77,0.026 4.445,0.057 -0.925,2.422 -1.477,3.897 -1.477,3.897 0,0 -5.922,13.318 -8.555,15.615 h 23.03 l 7.19,-19.444 c 1.945,-0.028 3.523,-0.063 4.483,-0.125 5.264,-0.328 6.914,-3.288 8.222,-6.905 1.32,-3.619 6.26,-9.215 6.26,-9.215 -3.955,1.152 -12.016,0.494 -12.016,0.494 h -1.121 l 7.541,-20.393 z M 378.16,12.296 c 0,0 8.054,0.659 8.054,7.07 v 40.959 c 0,0 -1.48,28.785 35.86,28.785 37.342,0 36.194,-26.977 36.194,-26.977 V 20.03 c 0,0 -1.651,-7.734 -8.062,-7.734 H 432.44 c 0,0 7.076,1.645 7.076,7.734 v 41.278 c 0,0 0.654,12.837 -14.483,12.837 0,0 -13.156,0.333 -13.156,-13.652 V 20.03 c 0,0 -0.492,-7.734 -7.729,-7.734 z m 88.556,0 c 0,0 6.905,2.632 6.905,8.058 v 59.869 c 0,0 -0.988,7.73 -6.905,7.73 h 25.17 v -39.47 l 30.427,33.56 c 0,0 2.96,5.91 12.824,5.91 h 11.515 V 20.85 c 0,0 -0.494,-8.555 -8.716,-8.555 h -16.78 c 0,0 6.583,1.807 6.583,7.564 V 51.932 L 492.873,12.295 Z"
             id="path871"
             style="fill:#ffffff" />
        </g>
        <path
           style="fill:#ffffff;stroke:#ffffff;stroke-width:1.02427793;stroke-opacity:1"
           inkscape:connector-curvature="0"
           d="M 50.381902,49.314678 V 81.251231"
           id="path875" />
      </g>
      <path
         id="path905"
         transform="scale(0.26458333)"
         d="m 722.25586,110.80664 c -8.37138,0 -15.14232,2.8265 -20.31445,8.47852 -5.17214,5.59869 -7.75782,12.95634 -7.75782,22.07422 0,9.11787 2.58568,16.50228 7.75782,22.15429 5.17213,5.5987 11.96983,8.39844 20.39453,8.39844 8.53135,0 15.35777,-2.85326 20.47656,-8.55859 5.11882,-5.70534 7.67773,-12.87569 7.67773,-21.51368 0,-9.38447 -2.58568,-16.90267 -7.75781,-22.55468 -5.11881,-5.65202 -11.94523,-8.47852 -20.47656,-8.47852 z m -198.90625,0.95898 v 58.30665 h 41.83008 v -6.5586 h -34.39258 v -19.99609 h 31.75195 v -6.55664 h -31.75195 v -18.63672 h 32.95312 v -6.5586 z m 52.83789,0 19.35547,28.39454 -20.63477,29.91211 h 9.03907 l 15.99609,-24.31446 15.91602,24.31446 h 9.19726 l -20.63476,-29.91211 19.67578,-28.39454 h -8.87891 l -15.03711,22.875 -14.95508,-22.875 z m 62.59766,0 v 58.30665 h 7.4375 v -24.71485 h 18.3164 c 4.85221,0 8.77184,-1.49254 11.75782,-4.47851 3.03929,-3.03929 4.55859,-7.03725 4.55859,-11.9961 0,-5.49205 -1.57282,-9.70602 -4.71875,-12.63867 -3.09261,-2.98597 -7.51868,-4.47852 -13.27734,-4.47852 z m 83.4707,5.59961 c 6.29185,0 11.33141,2.21304 15.11719,6.63868 3.7858,4.42563 5.67968,10.31749 5.67968,17.67578 0,7.03835 -1.92064,12.74292 -5.75976,17.11523 -3.78578,4.37232 -8.77181,6.5586 -14.95703,6.5586 -6.18522,0 -11.19604,-2.18628 -15.03516,-6.5586 -3.78578,-4.42563 -5.67969,-10.23723 -5.67969,-17.43554 0,-7.19832 1.89391,-12.98316 5.67969,-17.35547 3.7858,-4.42564 8.76986,-6.63868 14.95508,-6.63868 z m -76.0332,0.95899 h 15.51757 c 3.57251,0 6.3455,0.90584 8.31836,2.71875 2.02621,1.81291 3.03907,4.32028 3.03907,7.51953 0,3.19925 -1.01286,5.70467 -3.03907,7.51758 -1.97286,1.81291 -4.74585,2.71875 -8.31836,2.71875 h -15.51757 z"
         style="font-style:normal;font-variant:normal;font-weight:normal;font-stretch:normal;font-size:21.16172791px;line-height:1.25;font-family:FreeSans;-inkscape-font-specification:'FreeSans, Normal';font-variant-ligatures:normal;font-variant-caps:normal;font-variant-numeric:normal;font-feature-settings:normal;text-align:start;letter-spacing:1.62189579px;word-spacing:0px;writing-mode:lr-tb;text-anchor:start;fill:#ffffff;fill-opacity:1;stroke:none;stroke-width:5.45335579"
         inkscape:connector-curvature="0" />
    </g>
  </g>
</svg>
